<?xml version="1.0" encoding="UTF-8"?>
<!DOCTYPE svg PUBLIC "-//W3C//DTD SVG 1.1//EN" "http://www.w3.org/Graphics/SVG/1.1/DTD/svg11.dtd">
<svg xmlns="http://www.w3.org/2000/svg" version="1.1" width="135px" height="140px" style="shape-rendering:geometricPrecision; text-rendering:geometricPrecision; image-rendering:optimizeQuality; fill-rule:evenodd; clip-rule:evenodd" xmlns:xlink="http://www.w3.org/1999/xlink">
<g><path style="opacity:1" fill="#5eebb0" d="M 104.5,88.5 C 102.511,67.5262 101.844,46.1928 102.5,24.5C 102.414,23.5041 102.748,22.6708 103.5,22C 110.038,17.9669 116.704,14.1335 123.5,10.5C 124.666,32.8259 124.833,55.1592 124,77.5C 117.554,81.3053 111.054,84.9719 104.5,88.5 Z"/></g>
<g><path style="opacity:1" fill="#6f96ff" d="M 34.5,11.5 C 49.0752,19.4066 63.4086,27.7399 77.5,36.5C 78.9686,38.192 79.6353,40.192 79.5,42.5C 78.9893,49.514 78.3227,56.514 77.5,63.5C 63.8333,55.6667 50.1667,47.8333 36.5,40C 34.9371,39.2411 33.9371,38.0744 33.5,36.5C 33.1739,27.9832 33.5073,19.6499 34.5,11.5 Z"/></g>
<g><path style="opacity:0.357" fill="#c5f8e3" d="M 102.5,24.5 C 101.844,46.1928 102.511,67.5262 104.5,88.5C 103.791,89.404 102.791,89.7373 101.5,89.5C 101.169,67.6602 101.503,45.9936 102.5,24.5 Z"/></g>
<g><path style="opacity:0.689" fill="#9cb7ff" d="M 34.5,11.5 C 33.5073,19.6499 33.1739,27.9832 33.5,36.5C 32.1786,27.9912 32.1786,19.3245 33.5,10.5C 34.1067,10.6236 34.44,10.9569 34.5,11.5 Z"/></g>
<g><path style="opacity:1" fill="#ff136b" d="M 31.5,117.5 C 25.5046,122.503 18.8379,126.503 11.5,129.5C 10.5026,107.673 10.1693,85.673 10.5,63.5C 16.1698,59.663 22.1698,56.3296 28.5,53.5C 29.4959,53.5858 30.3292,53.2524 31,52.5C 31.5,74.1641 31.6666,95.8308 31.5,117.5 Z"/></g>
<g><path style="opacity:0.952" fill="#ff3b89" d="M 31.5,117.5 C 31.6666,95.8308 31.5,74.1641 31,52.5C 30.3292,53.2524 29.4959,53.5858 28.5,53.5C 29.287,51.8958 30.6203,51.2291 32.5,51.5C 32.8307,73.673 32.4974,95.673 31.5,117.5 Z"/></g>
<g><path style="opacity:0.684" fill="#ff6ba7" d="M 10.5,63.5 C 10.1693,85.673 10.5026,107.673 11.5,129.5C 11.44,130.043 11.1067,130.376 10.5,130.5C 9.17151,108.004 9.17151,85.6703 10.5,63.5 Z"/></g>
<g><path style="opacity:1" fill="#ffa82e" d="M 55.5,77.5 C 58.6907,78.0922 61.6907,79.2589 64.5,81C 76.8333,88.5 89.1667,96 101.5,103.5C 102.139,107.95 102.472,112.45 102.5,117C 102.64,121.674 102.14,126.174 101,130.5C 86.0835,121.626 71.2501,112.626 56.5,103.5C 55.5289,94.888 55.1956,86.2214 55.5,77.5 Z"/></g>
</svg>
